<svg xmlns="http://www.w3.org/2000/svg" width="29" height="29" viewBox="0 0 29 29">
  <defs>
    <style>
      .cls-1 {
        fill: transparent;
      }

      .cls-2 {
        fill: #007bb5;
      }
    </style>
  </defs>
  <g id="组_1122" data-name="组 1122" transform="translate(-64 -619.634)">
    <rect id="矩形_449" data-name="矩形 449" class="cls-1" width="29" height="29" transform="translate(64 619.634)"/>
    <path id="linkedin" class="cls-2" d="M114.279,133h3.542V121.645h-3.542Zm1.772-17A2.05,2.05,0,1,1,114,118.049,2.05,2.05,0,0,1,116.051,116Zm4,5.648h3.386V123.2h.048a3.71,3.71,0,0,1,3.343-1.834c3.574,0,4.235,2.35,4.235,5.407V133h-3.529v-5.519c0-1.318-.026-3.011-1.836-3.011-1.838,0-2.119,1.434-2.119,2.914V133h-3.528Z" transform="translate(-44.032 509.634)"/>
  </g>
</svg>
