<svg xmlns="http://www.w3.org/2000/svg" width="29" height="29" viewBox="0 0 29 29">
  <defs>
    <style>
      .cls-1 {
        fill: transparent;
      }

      .cls-2 {
        fill: #1877f2;
      }
    </style>
  </defs>
  <g id="组_1138" data-name="组 1138" transform="translate(-320 -537)">
    <rect id="矩形_400" data-name="矩形 400" class="cls-1" width="29" height="29" transform="translate(320 537)"/>
    <path id="facebook" class="cls-2" d="M289.681,61.936V65.3h-2a1.873,1.873,0,0,0-1.477.458,2.106,2.106,0,0,0-.382,1.375v2.406h3.73l-.5,3.769h-3.234v9.663h-3.9V73.3h-3.246V69.536h3.246V66.761a4.926,4.926,0,0,1,1.324-3.673,4.8,4.8,0,0,1,3.527-1.305,21.126,21.126,0,0,1,2.9.152v0Z" transform="translate(50.319 479.125)"/>
  </g>
</svg>
