<svg xmlns="http://www.w3.org/2000/svg" xmlns:xlink="http://www.w3.org/1999/xlink" width="29" height="29" viewBox="0 0 29 29">
  <defs>
    <style>
      .cls-1 {
        fill: none;
      }

      .cls-2 {
        isolation: isolate;
        clip-path: url(#clip-path);
      }

      .cls-3 {
        fill: transparent;
      }
    </style>
    <clipPath id="clip-path">
      <rect class="cls-1" x="4" y="4" width="29" height="29"/>
    </clipPath>
  </defs>
  <g id="滚动组_74" data-name="滚动组 74" class="cls-2" transform="translate(-4 -4)">
    <g id="组_1222" data-name="组 1222" transform="translate(-60 -615.634)">
      <rect id="矩形_453" data-name="矩形 453" class="cls-3" width="29" height="29" transform="translate(64 619.634)"/>
      <path id="github" d="M10.208,14.057A10.2,10.2,0,0,0,6.837,33.892c.536.135.454-.246.454-.506V31.618c-3.095.363-3.22-1.685-3.428-2.027-.42-.716-1.412-.9-1.115-1.241.7-.363,1.423.091,2.256,1.32a2.157,2.157,0,0,0,2.372.593,2.877,2.877,0,0,1,.791-1.387C4.96,28.3,3.624,26.345,3.624,24.019a4.489,4.489,0,0,1,1.1-3,3.979,3.979,0,0,1,.112-2.737,4.669,4.669,0,0,1,2.81,1.033A9.908,9.908,0,0,1,10.222,19a9.917,9.917,0,0,1,2.589.317,4.575,4.575,0,0,1,2.766-1,4.006,4.006,0,0,1,.125,2.691,4.491,4.491,0,0,1,1.115,3.017c0,2.331-1.346,4.29-4.561,4.855a2.908,2.908,0,0,1,.869,2.075v2.566c.018.205,0,.408.342.408a10.2,10.2,0,0,0-3.259-19.874Z" transform="translate(68.293 610.141)"/>
    </g>
  </g>
</svg>
