<svg xmlns="http://www.w3.org/2000/svg" width="29" height="29" viewBox="0 0 29 29">
  <defs>
    <style>
      .cls-1 {
        fill: transparent;
      }

      .cls-2 {
        fill: #1da1f2;
      }
    </style>
  </defs>
  <g id="组_1207" data-name="组 1207" transform="translate(-320 -537)">
    <rect id="矩形_400" data-name="矩形 400" class="cls-1" width="29" height="29" transform="translate(320 537)"/>
    <path id="twitter" class="cls-2" d="M114.145,175.761a7.5,7.5,0,0,1-2.153.579,3.73,3.73,0,0,0,1.644-2.061,7.382,7.382,0,0,1-2.372.9,3.742,3.742,0,0,0-6.471,2.559,4.294,4.294,0,0,0,.092.857,10.625,10.625,0,0,1-7.709-3.914,3.75,3.75,0,0,0,1.158,5,3.771,3.771,0,0,1-1.691-.476v.046a3.74,3.74,0,0,0,3,3.67,3.961,3.961,0,0,1-.984.127A4.975,4.975,0,0,1,97.95,183a3.746,3.746,0,0,0,3.5,2.594,7.493,7.493,0,0,1-4.642,1.6,7.644,7.644,0,0,1-.9-.046,10.645,10.645,0,0,0,16.381-8.964c0-.162,0-.324-.011-.487A8.052,8.052,0,0,0,114.145,175.761Z" transform="translate(229.612 370.089)"/>
  </g>
</svg>
