<svg xmlns="http://www.w3.org/2000/svg" xmlns:xlink="http://www.w3.org/1999/xlink" width="29" height="29" viewBox="0 0 29 29">
  <defs>
    <style>
      .cls-1 {
        fill: none;
      }

      .cls-2 {
        isolation: isolate;
        clip-path: url(#clip-path);
      }

      .cls-3 {
        fill: transparent;
      }

      .cls-4 {
        fill: #5865f2;
      }
    </style>
    <clipPath id="clip-path">
      <rect class="cls-1" x="4" y="4" width="29" height="29"/>
    </clipPath>
  </defs>
  <g id="滚动组_73" data-name="滚动组 73" class="cls-2" transform="translate(-4 -4)">
    <g id="组_1221" data-name="组 1221" transform="translate(-60 -615.634)">
      <rect id="矩形_449" data-name="矩形 449" class="cls-3" width="29" height="29" transform="translate(64 619.634)"/>
      <path id="discord-2" class="cls-4" d="M68.744,65.269a.05.05,0,0,0-.026-.024A16.292,16.292,0,0,0,64.7,64a.061.061,0,0,0-.065.031,11.336,11.336,0,0,0-.5,1.028,15.042,15.042,0,0,0-4.515,0,10.4,10.4,0,0,0-.508-1.028A.063.063,0,0,0,59.046,64a16.245,16.245,0,0,0-4.02,1.246.057.057,0,0,0-.026.023A16.656,16.656,0,0,0,52.082,76.5a.068.068,0,0,0,.026.046,16.379,16.379,0,0,0,4.931,2.492.064.064,0,0,0,.069-.023,11.694,11.694,0,0,0,1.009-1.64.062.062,0,0,0-.034-.087,10.786,10.786,0,0,1-1.541-.734.063.063,0,0,1-.006-.1q.156-.116.306-.24a.061.061,0,0,1,.064-.009,11.683,11.683,0,0,0,9.925,0,.061.061,0,0,1,.065.008q.15.124.307.24a.063.063,0,0,1-.005.1,10.123,10.123,0,0,1-1.541.733.063.063,0,0,0-.034.088,13.134,13.134,0,0,0,1.008,1.64.063.063,0,0,0,.069.024,16.325,16.325,0,0,0,4.939-2.492.063.063,0,0,0,.026-.045A16.546,16.546,0,0,0,68.744,65.269ZM58.6,74.262a2,2,0,0,1,0-3.979,2,2,0,0,1,0,3.979Zm6.562,0a2,2,0,0,1,0-3.979,2,2,0,0,1,0,3.979Z" transform="translate(17.115 563.091)"/>
    </g>
  </g>
</svg>
