<svg xmlns="http://www.w3.org/2000/svg" width="29" height="29" viewBox="0 0 29 29">
  <defs>
    <style>
      .cls-1 {
        fill: transparent;
      }

      .cls-2 {
        fill: #fbbc05;
      }

      .cls-3 {
        fill: #ea4335;
      }

      .cls-4 {
        fill: #34a853;
      }

      .cls-5 {
        fill: #4285f4;
      }
    </style>
  </defs>
  <g id="组_1136" data-name="组 1136" transform="translate(-320 -537)">
    <rect id="矩形_400" data-name="矩形 400" class="cls-1" width="29" height="29" transform="translate(320 537)"/>
    <path id="路径_1670" data-name="路径 1670" class="cls-2" d="M9.12,294.908a6.158,6.158,0,0,1,.325-1.965L5.8,290.219a10.463,10.463,0,0,0,0,9.374l3.641-2.729a6.143,6.143,0,0,1-.321-1.957" transform="translate(319.226 256.589)"/>
    <path id="路径_1671" data-name="路径 1671" class="cls-3" d="M66.889,15.722a6.344,6.344,0,0,1,3.985,1.395l3.149-3.079a10.948,10.948,0,0,0-16.849,3.249l3.644,2.724a6.366,6.366,0,0,1,6.071-4.289" transform="translate(267.855 529.52)"/>
    <path id="路径_1672" data-name="路径 1672" class="cls-4" d="M66.889,609.217a6.369,6.369,0,0,1-6.073-4.289l-3.643,2.724a10.816,10.816,0,0,0,9.715,5.9,10.441,10.441,0,0,0,7.052-2.638l-3.459-2.618a6.8,6.8,0,0,1-3.595.926" transform="translate(267.855 -51.467)"/>
    <path id="路径_1673" data-name="路径 1673" class="cls-5" d="M526.984,422.916a8.62,8.62,0,0,0-.246-1.924H516.651v4.089h5.806a4.763,4.763,0,0,1-2.21,3.164l3.458,2.618a10.418,10.418,0,0,0,3.28-7.946" transform="translate(-181.908 128.58)"/>
  </g>
</svg>
