<svg xmlns="http://www.w3.org/2000/svg" width="29" height="29" viewBox="0 0 29 29">
  <defs>
    <style>
      .cls-1 {
        fill: transparent;
      }

      .cls-2 {
        fill: #040000;
      }
    </style>
  </defs>
  <g id="组_1137" data-name="组 1137" transform="translate(-320 -537)">
    <rect id="矩形_400" data-name="矩形 400" class="cls-1" width="29" height="29" transform="translate(320 537)"/>
    <path id="apple" class="cls-2" d="M213.1,139.113a4.99,4.99,0,0,1,2.257-3.994,4.969,4.969,0,0,0-3.82-2.084c-1.65-.174-3.125.955-3.994.955-.781,0-2.084-.955-3.473-.868a5.229,5.229,0,0,0-4.341,2.6c-1.823,3.125-.434,7.9,1.389,10.5.868,1.3,1.91,2.691,3.3,2.6,1.3-.087,1.823-.868,3.386-.868s2.084.868,3.473.868,2.344-1.3,3.212-2.518a13.4,13.4,0,0,0,1.476-2.952,4.6,4.6,0,0,1-2.865-4.254m-2.691-7.814a4.453,4.453,0,0,0,1.042-3.3,4.354,4.354,0,0,0-3.039,1.563,4.191,4.191,0,0,0-1.129,3.212,3.87,3.87,0,0,0,3.125-1.476" transform="translate(127.05 412.407)"/>
  </g>
</svg>
