<?xml version="1.0" encoding="UTF-8"?>
<svg width="2000px" height="636px" viewBox="0 0 2000 636" version="1.1" xmlns="http://www.w3.org/2000/svg" xmlns:xlink="http://www.w3.org/1999/xlink">
    <title>横版透明底棕色logo</title>
    <defs>
        <path d="M379.279594,2.28726196 C393.383873,11.9851949 389.421521,44.7906353 367.392537,100.703583 C401.044305,137.458889 423.047209,180.745548 423.047209,210.371086 C423.047209,226.121593 412.977686,242.102142 395.220451,257.278302 L394.657143,257.75728 L392.446849,259.591457 C387.530358,263.594679 382.081463,267.537592 376.144621,271.400889 L374.95076,272.172481 L372.173497,273.927963 C369.362765,275.677673 366.452098,277.409861 363.445741,279.122682 L361.934608,279.97747 L358.86497,281.677158 L355.732956,283.363321 L352.539508,285.035547 L349.285571,286.693427 L345.972089,288.336552 L344.293313,289.152453 C301.17004,309.971287 249.711326,323.72291 212.648932,323.995861 L211.530259,324 L209.489034,323.986246 C172.485895,323.49348 121.520778,309.79923 78.753896,289.152453 L77.9126842,288.74498 L77.9126842,288.74498 L77.0751202,288.336552 L73.7616378,286.693427 L70.5077009,285.035547 L67.3142531,283.363321 L64.1822384,281.677158 L61.1126005,279.97747 C58.0744656,278.271156 55.1313116,276.545168 52.2873857,274.80135 L50.8737114,273.927963 L48.0964488,272.172481 C42.0947449,268.319886 36.5780243,264.386387 31.5907437,260.391292 L30.60036,259.591457 L28.3900657,257.75728 C10.2826286,242.4386 0,226.287388 0,210.371086 C0,180.745702 22.0026266,137.459536 55.6545892,100.704802 C33.6257351,44.7910252 29.6632521,11.9852525 43.7676151,2.28726196 C57.1601092,-5.30746265 91.2860635,6.01120446 146.145478,36.2432633 C166.985577,27.9631764 188.589008,23.4187217 210.357391,23.2618156 L211.523709,23.2576109 L213.49685,23.2696008 C234.99221,23.5311349 256.319541,28.0649228 276.900903,36.243067 C331.761318,6.01114703 365.887134,-5.30744338 379.279594,2.28726196 Z" id="path-1"></path>
        <radialGradient cx="92.1873248%" cy="45.5233506%" fx="92.1873248%" fy="45.5233506%" r="108.650111%" gradientTransform="translate(0.921873,0.455234),scale(1.000000,0.791699),rotate(-148.046607),translate(-0.921873,-0.455234)" id="radialGradient-2">
            <stop stop-color="#A9814D" offset="0%"></stop>
            <stop stop-color="#D4B784" offset="100%"></stop>
        </radialGradient>
        <linearGradient x1="18.6606182%" y1="-1.16155492e-13%" x2="77.7944582%" y2="45.9977693%" id="linearGradient-3">
            <stop stop-color="#D4B784" offset="0%"></stop>
            <stop stop-color="#A9814D" offset="100%"></stop>
        </linearGradient>
        <radialGradient cx="50%" cy="0%" fx="50%" fy="0%" r="104.497153%" gradientTransform="translate(0.500000,0.000000),scale(0.710896,1.000000),rotate(90.000000),translate(-0.500000,-0.000000)" id="radialGradient-4">
            <stop stop-color="#FFFFFF" offset="0%"></stop>
            <stop stop-color="#FFFFFF" offset="91.4812534%"></stop>
            <stop stop-color="#8F5A35" offset="100%"></stop>
        </radialGradient>
        <path d="M211.523709,23.2576109 C157.667508,23.2576109 104.755076,50.1707511 61.8628057,94.1358773 C24.7342694,132.193103 0,178.960484 0,210.371086 C0,226.287388 10.2826286,242.4386 28.3900657,257.75728 L30.60036,259.591457 C35.844617,263.861561 41.6946313,268.063046 48.0964488,272.172481 L50.8737114,273.927963 C54.1528987,275.969292 57.5681098,277.98677 61.1126005,279.97747 L64.1822384,281.677158 L67.3142531,283.363321 L70.5077009,285.035547 L73.7616378,286.693427 L77.0751202,288.336552 C77.632277,288.609154 78.1918755,288.881124 78.753896,289.152453 C121.520778,309.79923 172.485895,323.49348 209.489034,323.986246 L211.530259,324 C248.670905,324 300.734452,310.181578 344.293313,289.152453 L345.972089,288.336552 L349.285571,286.693427 L352.539508,285.035547 L355.732956,283.363321 L358.86497,281.677158 L361.934608,279.97747 C365.479099,277.98677 368.89431,275.969292 372.173497,273.927963 L374.95076,272.172481 C381.352578,268.063046 387.202592,263.861561 392.446849,259.591457 L394.657143,257.75728 C412.76458,242.4386 423.047209,226.287388 423.047209,210.371086 C423.047209,178.960605 398.313076,132.193244 361.184854,94.1359045 C318.81617,50.7069645 266.670627,23.9165663 213.49685,23.2696008 L211.523709,23.2576109 Z" id="path-5"></path>
        <linearGradient x1="50%" y1="0%" x2="50%" y2="100%" id="linearGradient-6">
            <stop stop-color="#D4B784" offset="0%"></stop>
            <stop stop-color="#925F1C" offset="100%"></stop>
        </linearGradient>
    </defs>
    <g id="横版透明底棕色logo" stroke="none" stroke-width="1" fill="none" fill-rule="evenodd">
        <g id="编组-3" transform="translate(203.000000, 156.000000)">
            <g id="编组-64备份-4">
                <g id="形状结合" stroke-width="50">
                    <use stroke="#A9814D" fill="#FFFFFF" fill-rule="evenodd" xlink:href="#path-1"></use>
                    <use stroke-opacity="0.3" stroke="#000000" xlink:href="#path-1"></use>
                </g>
                <path d="M156.092751,41.8035411 C95.3935857,7.41563005 57.9518739,-5.75646301 43.7676151,2.28726196 C28.9468597,12.4778353 34.0748718,48.1831982 59.1516514,109.403351" id="路径-14" fill="#FFFFFF"></path>
                <path d="M121.799073,55.7190813 C83.9623598,12.0541434 57.9518739,-5.75646301 43.7676151,2.28726196 C28.9468597,12.4778353 34.0748718,48.1831982 59.1516514,109.403351" id="路径-14" fill="url(#radialGradient-2)"></path>
                <g id="编组-65" transform="translate(211.523604, 162.000000) scale(-1, 1) translate(-211.523604, -162.000000) translate(0.000000, 0.000000)">
                    <path d="M156.092751,41.8035411 C95.3935857,7.41563005 57.9518739,-5.75646301 43.7676151,2.28726196 C28.9468597,12.4778353 34.0748718,48.1831982 59.1516514,109.403351" id="路径-14" fill="#FFFFFF"></path>
                    <path d="M121.799073,55.7190813 C83.9623598,12.0541434 57.9518739,-5.75646301 43.7676151,2.28726196 C28.9468597,12.4778353 34.0748718,48.1831982 59.1516514,109.403351" id="路径-14" fill="url(#linearGradient-3)"></path>
                    <g id="路径" fill-rule="nonzero">
                        <use fill="url(#radialGradient-4)" xlink:href="#path-5"></use>
                        <use fill="#FFFFFF" xlink:href="#path-5"></use>
                    </g>
                    <g id="编组" transform="translate(47.381287, 131.625000)">
                        <path d="M239.123445,0 C295.944444,0 328.615659,51.8244437 328.279536,85.7472219 C328.279536,134.576478 257.674942,164.727041 205.681657,176.536191 L201.865685,177.377402 C200.605937,177.646627 199.358878,177.904675 198.125851,178.15155 L194.470213,178.858668 C193.868404,178.970936 193.270439,179.080413 192.676486,179.187099 L189.162251,179.793726 C188.585016,179.88925 188.012129,179.981984 187.443757,180.071929 L184.089055,180.578134 L180.85078,181.017429 C178.732531,181.287996 176.697272,181.513977 174.755747,181.695413 L173.317347,181.823138 C171.020371,182.052257 168.512292,182.195943 165.79661,182.237474 L164.142317,182.25 C161.719657,182.25 159.452047,182.17094 157.339487,182.022949 L154.967287,181.823138 C152.599805,181.624181 150.081666,181.355638 147.433854,181.017429 L144.195579,180.578134 L140.840877,180.071929 C140.272505,179.981984 139.699618,179.88925 139.122383,179.793726 L135.608148,179.187099 C135.014195,179.080413 134.41623,178.970936 133.814421,178.858668 L130.158783,178.15155 C128.925756,177.904675 127.678697,177.646627 126.418949,177.377402 L122.602977,176.536191 C70.6096918,164.727041 0.00509767375,134.576478 0.00509767377,85.7472219 C-0.33102503,51.8244437 32.3401897,0 89.1611887,0 C113.715515,0 142.801737,19.6150022 142.801737,43.8105678 C142.801737,63.4246595 133.179848,74.6190157 122.086375,83.3810224 L120.225235,84.8198618 L118.345228,86.2198175 L116.45474,87.5870494 L108.042662,93.4997976 L106.24441,94.7971563 L104.490179,96.1018303 L102.788355,97.4199794 C94.9818378,103.612366 89.1611887,110.446165 89.1611887,120.738485 C89.1611887,133.622357 105.087724,147.117669 125.679759,155.292465 L127.944129,156.16287 C133.268317,158.143235 138.868266,159.764889 144.55825,160.929998 L147.001785,161.401093 C152.305709,162.360001 157.664386,162.913204 162.929115,162.982369 L164.142317,162.989703 C169.795512,162.995911 175.570931,162.433763 181.282849,161.401093 L183.726384,160.929998 C189.416368,159.764889 195.016317,158.143235 200.340505,156.16287 L202.604875,155.292465 C223.19691,147.117669 239.123445,133.622357 239.123445,120.738485 C239.123445,110.446165 233.302796,103.612366 225.496279,97.4199794 L223.794455,96.1018303 L222.040224,94.7971563 L220.241972,93.4997976 L212.776448,88.2603189 L210.883864,86.907139 L208.997568,85.5243151 C208.684176,85.2910319 208.371394,85.0562569 208.059399,84.8198618 L206.198259,83.3810224 C195.104786,74.6190157 185.482897,63.4246595 185.482897,43.8105678 C185.482897,19.6150022 214.569119,0 239.123445,0 Z" id="路径" fill="url(#linearGradient-6)" fill-rule="nonzero"></path>
                        <path d="M96.5638139,31.5502294 C100.757011,31.5502294 109.138665,34.2331687 115.441715,38.0287532 C115.948328,38.3338264 116.490903,38.6388989 117.035977,38.9509731 L117.503014,39.2203433 C119.600413,40.4416956 121.592745,41.7969829 121.559715,43.6880448 C121.558646,45.9946348 119.69986,48.7665784 117.511161,50.9124866 C115.779271,52.6105163 113.606673,54.1278775 111.138519,54.0655875 C106.777394,53.9784266 101.598439,51.9972938 97.7078168,48.9997817 C95.2216101,47.0842954 92.919659,44.7145554 92.919659,41.77366 C92.919659,37.7795015 92.9777777,34.4378204 94.3076008,32.2872548 C94.7524685,31.567823 95.6288494,31.5502294 96.5638139,31.5502294 Z" id="椭圆形" stroke="#FFFFFF" stroke-width="14.0320765" fill="#FFFFFF"></path>
                        <path d="M164.142317,154.211634 C183.785778,154.211634 199.70995,137.787139 199.70995,126.173268 C199.70995,114.559397 183.785778,105.144493 164.142317,105.144493 C144.498856,105.144493 128.574684,114.559397 128.574684,126.173268 C128.574684,137.787139 144.498856,154.211634 164.142317,154.211634 Z" id="椭圆形" fill="#8F5A35" transform="translate(164.142317, 129.678064) scale(-1, 1) translate(-164.142317, -129.678064) "></path>
                        <path d="M210.369091,31.5502294 C214.562288,31.5502294 222.943942,34.2331687 229.246992,38.0287532 C231.852429,39.5977012 235.409031,41.166629 235.364992,43.6880448 C235.363922,45.9946348 233.505136,48.7665784 231.316437,50.9124866 C229.584548,52.6105163 227.41195,54.1278775 224.943796,54.0655875 C220.582671,53.9784266 215.403716,51.9972938 211.513093,48.9997817 C209.026887,47.0842954 206.724936,44.7145554 206.724936,41.77366 C206.724936,37.7795015 206.783054,34.4378204 208.112878,32.2872548 C208.557745,31.567823 209.434126,31.5502294 210.369091,31.5502294 Z" id="椭圆形" stroke="#FFFFFF" stroke-width="14.0320765" fill="#FFFFFF" transform="translate(221.044955, 42.808714) scale(-1, 1) translate(-221.044955, -42.808714) "></path>
                    </g>
                </g>
            </g>
            <g id="编组-2" transform="translate(543.196828, 88.015748)" fill="#8F5A35" fill-rule="nonzero">
                <path d="M45.9807222,6.37795276 C57.1404059,6.37795276 67.4172033,8.0427026 76.8111143,11.3722023 C86.2050253,14.701702 94.2216335,19.4125899 100.860939,25.5048659 C107.500245,31.5971419 112.691616,38.9291253 116.435055,47.500816 C120.178493,56.0725067 122.050212,65.600543 122.050212,76.084925 C122.050212,86.4276262 120.178493,95.9202424 116.435055,104.562773 C112.691616,113.205305 107.500245,120.643549 100.860939,126.877505 C94.2216335,133.111462 86.2050253,137.964031 76.8111143,141.435212 C67.4172033,144.906392 57.1404059,146.641982 45.9807222,146.641982 L0,146.641982 L0,6.37795276 L45.9807222,6.37795276 Z M28.6055184,32.3055461 L28.6055184,120.714389 L45.7688295,120.714389 C52.8319205,120.714389 59.2593332,119.651783 65.0510678,117.52657 C70.8428024,115.401358 75.7869661,112.39064 79.8835589,108.494417 C83.9801516,104.598194 87.1585426,99.922726 89.4187317,94.4680138 C91.6789208,89.0133015 92.8090153,82.8856053 92.8090153,76.084925 C92.8090153,69.142564 91.6789208,62.9794475 89.4187317,57.5955757 C87.1585426,52.2117038 83.9801516,47.6424968 79.8835589,43.8879546 C75.7869661,40.1334124 70.8428024,37.2643754 65.0510678,35.2808437 C59.2593332,33.297312 52.8319205,32.3055461 45.7688295,32.3055461 L28.6055184,32.3055461 Z" id="形状"></path>
                <path d="M191.465977,37.0166655 C198.811591,37.0166655 205.521528,38.291793 211.595786,40.8420481 C217.670044,43.3923032 222.861416,46.8634837 227.169902,51.2555897 C231.478387,55.6476957 234.79804,60.8190463 237.12886,66.7696415 C239.45968,72.7202366 240.62509,79.0958744 240.62509,85.8965546 C240.62509,88.8718522 240.413197,91.7763094 239.989412,94.6099261 C239.565626,97.4435429 239.141841,99.7812767 238.718055,101.623128 L164.979386,101.623128 C166.815789,108.423808 170.347335,113.595158 175.574022,117.137179 C180.800709,120.6792 187.228122,122.450211 194.85626,122.450211 C200.506733,122.450211 205.698105,121.493865 210.430376,119.581174 C215.162647,117.668483 219.718341,115.082807 224.097457,111.824148 L235.751557,131.376104 C229.818561,136.334933 223.391148,140.195736 216.469319,142.958512 C209.54749,145.721288 202.060613,147.102677 194.008689,147.102677 C185.674242,147.102677 177.975473,145.685868 170.912382,142.852251 C163.849291,140.018635 157.775033,136.122412 152.689607,131.163582 C147.604182,126.204753 143.613535,120.395839 140.717668,113.736839 C137.821801,107.07784 136.373867,99.8521171 136.373867,92.059671 C136.373867,84.2672249 137.786485,77.0415022 140.611722,70.3825028 C143.436958,63.7235034 147.321658,57.9145891 152.265822,52.9557597 C157.209986,47.9969304 163.037036,44.1007074 169.746972,41.2670906 C176.456908,38.4334739 183.696577,37.0166655 191.465977,37.0166655 Z M190.406513,60.1814825 C184.190993,60.1814825 178.823044,62.0587536 174.302666,65.8132958 C169.782287,69.567838 166.674527,74.7746088 164.979386,81.4336082 L213.079035,81.4336082 C212.796511,74.632928 210.465691,69.390737 206.086575,65.7070352 C201.707459,62.0233334 196.480771,60.1814825 190.406513,60.1814825 Z" id="形状"></path>
                <path d="M464.946904,36.0906469 C472.292518,36.0906469 479.002455,37.3657745 485.076713,39.9160296 C491.150971,42.4662846 496.342343,45.9374652 500.650829,50.3295711 C504.959314,54.7216771 508.278967,59.8930277 510.609787,65.8436229 C512.940607,71.7942181 514.106017,78.1698558 514.106017,84.970536 C514.106017,87.9458336 513.894124,90.8502908 513.470339,93.6839076 C513.046553,96.5175243 512.622768,98.8552582 512.198982,100.697109 L438.460313,100.697109 C440.296716,107.497789 443.828262,112.66914 449.054949,116.211161 C454.281637,119.753182 460.709049,121.524192 468.337188,121.524192 C473.98766,121.524192 479.179032,120.567847 483.911303,118.655155 C488.643574,116.742464 493.199268,114.156789 497.578384,110.898129 L509.232484,130.450085 C503.299488,135.408914 496.872075,139.269717 489.950246,142.032494 C483.028417,144.79527 475.54154,146.176658 467.489617,146.176658 C459.155169,146.176658 451.4564,144.75985 444.393309,141.926233 C437.330218,139.092616 431.25596,135.196393 426.170534,130.237564 C421.085109,125.278734 417.094463,119.46982 414.198595,112.810821 C411.302728,106.151821 409.854794,98.9260986 409.854794,91.1336525 C409.854794,83.3412064 411.267413,76.1154837 414.092649,69.4564843 C416.917885,62.7974849 420.802585,56.9885705 425.746749,52.0297412 C430.690913,47.0709119 436.517963,43.1746888 443.227899,40.3410721 C449.937836,37.5074553 457.177504,36.0906469 464.946904,36.0906469 Z M463.88744,59.2554639 C457.67192,59.2554639 452.303971,61.132735 447.783593,64.8872772 C443.263215,68.6418195 440.155455,73.8485903 438.460313,80.5075896 L486.559962,80.5075896 C486.277439,73.7069094 483.946619,68.4647184 479.567502,64.7810166 C475.188386,61.0973148 469.961698,59.2554639 463.88744,59.2554639 Z" id="形状"></path>
                <path d="M588.1233,40.489235 C591.654846,40.489235 594.691975,40.9142775 597.234687,41.7643626 L597.234687,67.0543922 L589.606549,67.0543922 C581.413364,67.0543922 574.703427,69.2504451 569.47674,73.6425511 C564.250053,78.0346571 561.636709,84.9770182 561.636709,94.4696343 L561.636709,146.962385 L533.03119,146.962385 L533.03119,41.7643626 L559.305889,41.7643626 L559.305889,54.3031167 C562.837434,49.7693299 567.075289,46.3335696 572.019453,43.9958358 C576.963616,41.6581019 582.331565,40.489235 588.1233,40.489235 Z" id="路径"></path>
                <path d="M682.826886,60.4916987 L652.950011,60.4916987 L652.950011,101.933344 C652.950011,108.02562 654.539206,112.276045 657.717597,114.684619 C660.895988,117.093193 665.804836,118.297481 672.444142,118.297481 C674.139284,118.297481 676.116949,118.22664 678.377138,118.084959 C680.637327,117.943279 683.18004,117.730757 686.005277,117.447396 L686.005277,141.462298 C683.038778,142.170702 679.931018,142.772845 676.681997,143.268728 C673.432975,143.764611 669.97206,144.012553 666.299253,144.012553 C653.303165,144.012553 643.061683,140.824734 635.574807,134.449096 C628.087931,128.073458 624.344492,118.084959 624.344492,104.483599 L624.344492,60.4916987 L607.81686,60.4916987 L607.81686,36.2642754 L624.344492,36.2642754 L624.344492,9.69911828 L652.950011,9.69911828 L652.950011,36.2642754 L682.826886,36.2642754 L682.826886,60.4916987 Z" id="路径"></path>
                <path d="M715.717916,106.468057 C721.227127,106.468057 725.853452,108.380748 729.59689,112.206131 C733.340328,116.031513 735.212047,120.706981 735.212047,126.232534 C735.212047,131.899767 733.340328,136.610655 729.59689,140.365197 C725.853452,144.119739 721.227127,145.99701 715.717916,145.99701 C709.926182,145.99701 705.158595,144.119739 701.415157,140.365197 C697.671719,136.610655 695.8,131.899767 695.8,126.232534 C695.8,120.706981 697.671719,116.031513 701.415157,112.206131 C705.158595,108.380748 709.926182,106.468057 715.717916,106.468057 Z" id="路径"></path>
                <path d="M879.43841,40.489235 C885.65393,40.489235 891.233772,41.5164211 896.177935,43.5707933 C901.122099,45.6251654 905.289323,48.4942024 908.679606,52.1779042 C912.06989,55.861606 914.647918,60.2891321 916.413691,65.4604827 C918.179464,70.6318333 919.06235,76.4053275 919.06235,82.7809652 L919.06235,148.024991 L890.456832,148.024991 L890.456832,86.8188691 C890.456832,80.4432313 888.76169,75.4489818 885.371406,71.8361204 C881.981122,68.2232591 877.460744,66.4168284 871.810271,66.4168284 C866.018537,66.4168284 861.356897,68.2232591 857.825351,71.8361204 C854.293806,75.4489818 852.528033,80.2307101 852.528033,86.1813053 L852.528033,148.024991 L823.922515,148.024991 L823.922515,86.8188691 C823.922515,80.4432313 822.227373,75.4489818 818.837089,71.8361204 C815.446806,68.2232591 810.855796,66.4168284 805.064062,66.4168284 C799.272327,66.4168284 794.646003,68.2232591 791.185088,71.8361204 C787.724173,75.4489818 785.993716,80.4432313 785.993716,86.8188691 L785.993716,148.024991 L757.388198,148.024991 L757.388198,42.8269689 L783.662896,42.8269689 L783.662896,52.1779042 C787.194442,48.4942024 791.432296,45.6251654 796.37646,43.5707933 C801.320624,41.5164211 806.971096,40.489235 813.327878,40.489235 C820.390969,40.489235 826.500543,41.7997828 831.656599,44.4208783 C836.812656,47.0419738 841.015195,50.7610958 844.264217,55.5782443 C848.360809,51.0444575 853.375604,47.3961759 859.3086,44.6333995 C865.241597,41.8706232 871.951533,40.489235 879.43841,40.489235 Z" id="路径"></path>
                <path d="M1001.64406,36.0906469 C1008.98967,36.0906469 1015.69961,37.3657745 1021.77387,39.9160296 C1027.84813,42.4662846 1033.0395,45.9374652 1037.34798,50.3295711 C1041.65647,54.7216771 1044.97612,59.8930277 1047.30694,65.8436229 C1049.63776,71.7942181 1050.80317,78.1698558 1050.80317,84.970536 C1050.80317,87.9458336 1050.59128,90.8502908 1050.16749,93.6839076 C1049.74371,96.5175243 1049.31992,98.8552582 1048.89614,100.697109 L975.157467,100.697109 C976.993871,107.497789 980.525417,112.66914 985.752104,116.211161 C990.978791,119.753182 997.406204,121.524192 1005.03434,121.524192 C1010.68481,121.524192 1015.87619,120.567847 1020.60846,118.655155 C1025.34073,116.742464 1029.89642,114.156789 1034.27554,110.898129 L1045.92964,130.450085 C1039.99664,135.408914 1033.56923,139.269717 1026.6474,142.032494 C1019.72557,144.79527 1012.23869,146.176658 1004.18677,146.176658 C995.852324,146.176658 988.153555,144.75985 981.090464,141.926233 C974.027373,139.092616 967.953115,135.196393 962.867689,130.237564 C957.782264,125.278734 953.791617,119.46982 950.89575,112.810821 C947.999883,106.151821 946.551949,98.9260986 946.551949,91.1336525 C946.551949,83.3412064 947.964567,76.1154837 950.789804,69.4564843 C953.61504,62.7974849 957.49974,56.9885705 962.443904,52.0297412 C967.388067,47.0709119 973.215117,43.1746888 979.925054,40.3410721 C986.63499,37.5074553 993.874658,36.0906469 1001.64406,36.0906469 Z M1000.58459,59.2554639 C994.369075,59.2554639 989.001126,61.132735 984.480747,64.8872772 C979.960369,68.6418195 976.852609,73.8485903 975.157467,80.5075896 L1023.25712,80.5075896 C1022.97459,73.7069094 1020.64377,68.4647184 1016.26466,64.7810166 C1011.88554,61.0973148 1006.65885,59.2554639 1000.58459,59.2554639 Z" id="形状"></path>
                <path d="M328.749736,0 C342.452133,0 354.635965,3.11697844 365.301232,9.35093531 C375.966499,15.5848922 384.406893,24.0857425 390.622413,34.8534861 L368.797462,50.1550166 C364.135822,42.6459322 358.520665,36.8370179 351.95199,32.7282736 C345.383315,28.6195293 337.649231,26.5651571 328.749736,26.5651571 C322.251693,26.5651571 316.283381,27.6986038 310.844801,29.9654972 C305.406221,32.2323906 300.67395,35.4202095 296.647988,39.5289538 C292.622026,43.6376981 289.47895,48.525687 287.218761,54.1929205 C284.958572,59.8601541 283.828478,66.0941109 283.828478,72.8947911 C283.828478,79.6954714 284.958572,85.894008 287.218761,91.4904011 C289.47895,97.0867942 292.622026,101.903943 296.647988,105.941847 C300.67395,109.97975 305.406221,113.132149 310.844801,115.399043 C316.283381,117.665936 322.251693,118.799383 328.749736,118.799383 C337.649231,118.799383 345.383315,116.745011 351.95199,112.636266 C358.520665,108.527522 364.135822,102.718608 368.797462,95.2095231 L390.622413,110.511054 C384.406893,121.278797 375.966499,129.779648 365.301232,136.013604 C354.635965,142.247561 342.452133,145.36454 328.749736,145.36454 C318.296362,145.36454 308.549296,143.522689 299.50854,139.838987 C290.467783,136.155285 282.627752,131.054775 275.988447,124.537457 C269.349141,118.020138 264.087138,110.333953 260.202438,101.4789 C256.317738,92.6238478 254.375388,83.0249711 254.375388,72.6822699 C254.375388,62.3395687 256.317738,52.7406919 260.202438,43.8856396 C264.087138,35.0305872 269.349141,27.3444017 275.988447,20.8270832 C282.627752,14.3097646 290.467783,9.20925447 299.50854,5.52555268 C308.549296,1.84185089 318.296362,0 328.749736,0 Z" id="路径"></path>
            </g>
        </g>
    </g>
</svg>