<?xml version="1.0" encoding="UTF-8"?>
<svg width="1000px" height="1000px" viewBox="0 0 1000 1000" version="1.1" xmlns="http://www.w3.org/2000/svg" xmlns:xlink="http://www.w3.org/1999/xlink">
    <title>棕色底白色logo</title>
    <g id="棕色底白色logo" stroke="none" stroke-width="1" fill="none" fill-rule="evenodd">
        <rect id="矩形" fill="#B58E53" x="0" y="0" width="1000" height="1000"></rect>
        <g id="编组-65" transform="translate(500.000000, 499.540810) scale(-1, 1) translate(-500.000000, -499.540810) translate(225.000000, 283.000000)" fill="#FFFFFF" fill-rule="nonzero">
            <path d="M355.259365,209 C354.028656,209 352.539259,209.149484 350.871357,209.433826 L350.022902,209.587168 C349.160315,209.751612 348.256442,209.949162 347.321307,210.177989 L346.376123,210.417174 C343.670679,211.124019 340.741093,212.077058 337.815341,213.234708 L336.783254,213.651718 C326.643259,217.834531 316.87252,224.422948 317.001258,231.678682 C317.001258,233.628579 317.622356,235.90718 318.733007,238.219605 L319.008895,238.775086 C319.103946,238.960362 319.202063,239.145703 319.303178,239.330959 L319.615451,239.88632 C323.254971,246.174078 330.28282,252.188486 338.051819,251.995476 C350.614392,251.748599 368,241.807348 368,229.282257 L367.992066,228.085136 L367.977632,227.303891 L367.955515,226.536322 L367.925399,225.782608 L367.886968,225.042927 L367.839907,224.317458 L367.783901,223.606379 L367.718634,222.909868 L367.643791,222.228103 L367.559056,221.561264 L367.464114,220.909528 L367.358649,220.273074 C367.321705,220.06349 367.282955,219.856482 367.242345,219.652081 L367.114889,219.046726 C365.69474,212.673645 362.317192,209 355.259365,209 Z M194.740635,209 C195.971344,209 197.460741,209.149484 199.128643,209.433826 L199.977098,209.587168 C200.839685,209.751612 201.743558,209.949162 202.678693,210.177989 L203.623877,210.417174 C206.329321,211.124019 209.258907,212.077058 212.184659,213.234708 L213.216746,213.651718 C223.356741,217.834531 233.12748,224.422948 232.998742,231.678682 C232.998742,233.628579 232.377644,235.90718 231.266993,238.219605 L230.991105,238.775086 C230.896054,238.960362 230.797937,239.145703 230.696822,239.330959 L230.384549,239.88632 C226.745029,246.174078 219.71718,252.188486 211.948181,251.995476 C199.385608,251.748599 182,241.807348 182,229.282257 L182.007934,228.085136 L182.022368,227.303891 L182.044485,226.536322 L182.074601,225.782608 L182.113032,225.042927 L182.160093,224.317458 L182.216099,223.606379 L182.281366,222.909868 L182.356209,222.228103 L182.440944,221.561264 L182.535886,220.909528 L182.641351,220.273074 C182.678295,220.06349 182.717045,219.856482 182.757655,219.652081 L182.885111,219.046726 C184.30526,212.673645 187.682808,209 194.740635,209 Z" id="形状结合"></path>
            <path d="M485.12745,5.77247707 L485.604815,6.03934063 L486.545746,6.57302078 L487.437063,7.1859817 C497.083125,13.8196073 503.236099,23.7524007 506.087231,35.7030379 C508.356585,45.2151274 508.578938,56.0586282 507.080759,68.464643 C506.616708,72.3073185 505.980509,76.3411277 505.172583,80.5691847 L504.925054,81.8434323 L504.567882,83.6145874 C504.176515,85.5156076 503.75192,87.4543773 503.294136,89.4311619 L502.944574,90.9208823 L502.490125,92.8031175 L502.01624,94.7077145 L501.772011,95.6684139 L501.522925,96.6347219 L501.010189,98.5841881 L500.478036,100.556162 L499.926474,102.550692 L499.643416,103.55643 L499.355509,104.567826 L498.765148,106.607614 L498.155397,108.670103 C497.948916,109.361389 497.739205,110.056466 497.526264,110.755343 L497.20443,111.806509 L496.546235,113.925966 L495.868673,116.068294 L495.696257,116.607455 L495.522631,117.14805 L494.816032,119.324777 L494.090083,121.524497 L493.34479,123.747259 L492.580161,125.993111 L491.796202,128.262102 L491.597192,128.832971 L491.396975,129.40529 L490.584033,131.709081 L490.377779,132.288661 L490.170319,132.869696 L489.328409,135.208395 L488.467195,137.570428 L487.95,138.972309 L489.070516,140.310899 C525.454067,184.038609 549.001566,233.163913 549.969008,271.333959 L549.991402,272.487257 L550,273.76071 C550,300.21191 535.198913,325.032617 509.074273,347.595291 L508.279155,348.278317 L507.526603,348.918186 L504.710332,351.255614 L503.461704,352.265736 C497.635353,356.943251 491.297147,361.532694 484.431227,366.052597 L483.051003,366.955656 L481.722553,367.814031 L478.231452,370.022545 L476.702852,370.969999 C473.924584,372.6799 471.071392,374.376701 468.120422,376.073637 L466.636684,376.922178 L464.882705,377.912522 L461.125413,379.993318 L457.167169,382.124648 L453.142031,384.232736 L449.050841,386.317545 L445.012962,388.320226 L442.791174,389.401003 C388.975588,415.38616 325.384839,432.382784 277.857807,433.060704 L276.422537,433.076245 L274.969879,433.08162 L272.426857,433.064482 L270.833316,433.038954 C223.988027,432.098749 161.797502,415.489192 108.783054,390.157068 L107.17939,389.386765 L106.126061,388.876364 L105.136143,388.393562 L100.949159,386.317545 L96.8579693,384.232736 L92.8328306,382.124648 L88.8745869,379.993318 L85.1172954,377.912522 L83.2994119,376.885925 C80.6132477,375.357918 77.98012,373.813683 75.38121,372.241335 L73.4381492,371.056618 L71.872578,370.088312 L68.4860979,367.947391 L66.8715127,366.905393 C60.0580445,362.473822 53.7124671,357.941978 47.8119176,353.27951 L46.5543175,352.2784 L45.3259617,351.285736 L42.4965351,348.93739 L41.5985074,348.173863 C15.0680716,325.482789 0,300.455573 0,273.76071 C0,235.646291 23.2971864,185.975677 59.8189484,141.653532 L60.929706,140.312091 L62.049,138.973309 L61.0985746,136.384785 L60.2459604,134.031409 L59.4127028,131.701403 L58.5988085,129.394719 L58.3983611,128.821686 L58.1991245,128.250107 L57.4142874,125.978312 L56.64883,123.729718 L55.9027589,121.504273 L55.5369954,120.400217 L55.1760809,119.301931 L54.4688025,117.122641 L53.7809304,114.966356 L53.1124711,112.833026 L52.7855234,111.774954 L52.4634313,110.722603 L51.8338177,108.635037 L51.2236368,106.570281 C50.9567646,105.657673 50.6956522,104.751809 50.4403023,103.852669 L50.0615996,102.509001 L49.5097566,100.512379 L48.9773728,98.538371 C48.8031555,97.8841319 48.6321825,97.2336538 48.4644549,96.5869283 L48.2152977,95.6196536 L47.7315909,93.7019672 L47.2673666,91.806724 C47.0653751,90.9693738 46.8691581,90.138659 46.6787182,89.3145603 L46.3973916,88.083372 L45.9916542,86.2551656 C44.7597037,80.6020459 43.8109933,75.2719352 43.1464204,70.2582228 L43.0083613,69.1886963 L42.9192181,68.4650195 C41.4210391,56.0588861 41.6433855,45.2153247 43.9127272,35.7031982 C46.7146939,23.9585309 52.7056399,14.1627497 62.067115,7.53203749 L62.5629374,7.1859817 L63.4542538,6.57302078 L64.395185,6.03934063 C77.2497871,-1.25157033 92.8769039,-1.60340231 112.360649,3.17345613 L113.084035,3.35271849 L114.541436,3.72523192 L116.013091,4.11626073 L117.499098,4.52564139 C118.16275,4.71164231 118.830683,4.90303237 119.502937,5.09974698 L120.514562,5.39880421 L122.044213,5.86225934 L122.428926,5.98089479 L122.814562,6.10063379 L124.366367,6.5905743 L125.539987,6.96949183 L126.722024,7.35815743 L128.323175,7.89589202 L129.131328,8.172212 L129.944538,8.45350103 L131.586146,9.030988 L132.414551,9.32718682 L133.248029,9.62835646 L134.930217,10.2456099 L136.632741,10.882752 L137.922998,11.3736625 L139.224723,11.8757637 L140.978221,12.5626426 L141.419789,12.7374717 L141.862634,12.9135446 L143.646808,13.6302761 L144.096052,13.8125692 L144.546577,13.9961065 L146.361496,14.7426987 L148.196951,15.5092023 L148.659026,15.7039398 L149.122388,15.899922 L150.988703,16.6962996 L151.458501,16.8985064 L151.929587,17.1019582 L153.826831,17.9282175 L154.304368,18.1378956 L154.783197,18.3488191 L156.711439,19.2049682 L158.660384,20.0810482 L160.630064,20.9770626 L162.620508,21.893015 L164.631749,22.828909 L165.137811,23.0659987 L165.645176,23.3043351 L167.687667,24.2701479 L169.751031,25.2559111 L171.835296,26.2616281 L173.940496,27.2873025 L177.137612,28.863242 L180.382002,30.4841055 L182.571241,31.5896448 L184.781568,32.7151592 L187.013012,33.8606521 L189.265603,35.0261272 L192.68421,36.811814 L194.989806,38.0272598 L197.316657,39.2627 L199.699,40.5363086 L200.126919,40.3890768 C223.462956,32.391866 247.235463,28.055349 271.027707,27.6115802 L272.349516,27.5909327 L273.67135,27.5783039 L274.91856,27.5742348 L277.484117,27.5887366 L278.956137,27.6102034 C302.272435,28.035865 325.621589,32.2208919 348.562835,39.9436748 L349.860958,40.3845902 L350.299,40.5363086 L351.528377,39.877989 L353.900126,38.614473 L356.249969,37.3715483 L358.577938,36.1492112 L359.156517,35.8468433 L359.733731,35.5457618 L362.028951,34.3542991 L362.59935,34.0596489 L363.168387,33.7662848 L365.43093,32.6056882 L367.671728,31.4656644 L369.890814,30.3462095 L370.442196,30.0695593 L370.992224,29.7941944 L374.263975,28.1689922 L374.804535,27.9026226 L375.343745,27.6375378 L377.487088,26.5900455 L379.608863,25.5631055 L382.751154,24.0612232 L384.819148,23.0856479 L386.865686,22.1306121 L388.890799,21.1961119 L390.89452,20.2821437 L392.876881,19.3887038 L394.837915,18.5157885 L395.324844,18.3007662 L395.810443,18.0870264 L397.739545,17.244891 L399.647398,16.4232709 L400.121045,16.2210709 L400.593367,16.0201529 L402.469409,15.2292988 L404.324283,14.4589507 L406.158022,13.709105 L406.613158,13.5248466 L407.066975,13.3418694 L408.869071,12.6227702 L410.65011,11.9241641 L412.410127,11.2460473 L412.84685,11.0797192 L413.282261,10.9146713 L415.010803,10.2672816 L415.439665,10.1086344 L415.867218,9.95126707 L417.564357,9.33459616 L417.985375,9.18362772 L418.405088,9.03393889 L420.070896,8.44797839 L421.30657,8.02194098 L422.53053,7.6074158 L423.27792,7.35804477 C423.980895,7.12485233 424.679414,6.8967583 425.373516,6.67382726 L426.41136,6.34331104 L427.955767,5.86216363 L428.339561,5.74463564 L428.722435,5.62821632 L430.244762,5.1736767 L431.376922,4.84453809 L432.500912,4.52556135 L433.986928,4.11618563 L435.458591,3.72516163 L436.915999,3.35265285 C456.495224,-1.55050209 472.204261,-1.3473561 485.12745,5.77247707 Z M363.620285,180.675059 C334.599497,180.675059 300.222457,203.861929 300.222457,232.463477 C300.222457,255.64927 311.594579,268.882105 324.705968,279.239662 L326.905652,280.940512 L329.127634,282.595398 L331.362004,284.211602 L341.304249,291.201054 L343.429606,292.73466 L345.502933,294.276913 L347.51432,295.835096 C356.740853,303.155109 363.620285,311.233334 363.620285,323.399873 C363.620285,338.629882 344.796694,354.582674 320.458943,364.24609 L317.782682,365.274994 C311.490017,367.615981 304.871431,369.532937 298.146432,370.91021 L295.258415,371.467091 C288.989702,372.600615 282.656274,373.254556 276.433885,373.336316 L275,373.344985 C268.318482,373.352324 261.492507,372.687809 254.741585,371.467091 L251.853568,370.91021 C245.128569,369.532937 238.509983,367.615981 232.217318,365.274994 L229.541057,364.24609 C205.203306,354.582674 186.379715,338.629882 186.379715,323.399873 C186.379715,311.233334 193.259147,303.155109 202.48568,295.835096 L204.497067,294.276913 L206.570394,292.73466 L208.695751,291.201054 L217.519262,285.007473 L219.75611,283.40788 L221.985525,281.773246 C222.355924,281.497482 222.725601,281.219955 223.094348,280.940512 L225.294032,279.239662 C238.405421,268.882105 249.777543,255.64927 249.777543,232.463477 C249.777543,203.861929 215.400503,180.675059 186.379715,180.675059 C119.222909,180.675059 80.6087611,241.936669 81.0060249,282.036744 C81.0060249,339.757747 164.453679,375.398691 225.904605,389.358272 L230.414706,390.352666 C231.903605,390.670917 233.377505,390.975955 234.83482,391.267786 L239.155423,392.103669 C239.866702,392.236381 240.573437,392.365794 241.275432,392.491907 L245.428911,393.209 C246.111145,393.321918 246.788241,393.431539 247.46,393.537863 L251.424927,394.136248 L255.252247,394.655538 C257.755809,394.975375 260.161284,395.242507 262.455974,395.456982 L264.156021,395.607965 C266.87082,395.878807 269.835122,396.048658 273.044789,396.097751 L275,396.112559 C277.863345,396.112559 280.543436,396.019101 283.040273,395.844162 L285.843979,395.607965 C288.642109,395.372779 291.6183,395.055334 294.747753,394.655538 L298.575073,394.136248 L302.54,393.537863 C303.211759,393.431539 303.888855,393.321918 304.571089,393.209 L308.724568,392.491907 C309.426563,392.365794 310.133298,392.236381 310.844577,392.103669 L315.16518,391.267786 C316.622495,390.975955 318.096395,390.670917 319.585294,390.352666 L324.095395,389.358272 C385.546321,375.398691 468.993975,339.757747 468.993975,282.036744 C469.391239,241.936669 430.777091,180.675059 363.620285,180.675059 Z M275,304.966234 C251.78337,304.966234 232.962572,316.09558 232.962572,329.824323 C232.962572,343.553066 251.78337,362.968441 275,362.968441 C298.21663,362.968441 317.037428,343.553066 317.037428,329.824323 C317.037428,316.09558 298.21663,304.966234 275,304.966234 Z M76.7289964,27.7850781 C60.0590787,39.2490294 64.7422707,78.0285116 90.7781336,144.12443 C93.174892,141.506247 95.621648,138.9161 98.1157238,136.359213 C118.255973,115.711748 140.265463,98.2458282 163.471531,84.6924098 C121.713434,37.6394116 92.799256,18.670301 76.7289964,27.7850781 Z M386.528658,84.6916696 C409.734785,98.2451995 431.744415,115.711396 451.884809,136.359245 C454.378546,138.915814 456.824976,141.505634 459.22182,144.122528 C485.257776,78.0281216 489.940838,39.2489717 473.271004,27.7850781 C457.200744,18.670301 428.286566,37.6394116 386.528658,84.6916696 Z" id="形状结合"></path>
        </g>
    </g>
</svg>