<?xml version="1.0" encoding="UTF-8"?>
<svg width="1000px" height="1000px" viewBox="0 0 1000 1000" version="1.1" xmlns="http://www.w3.org/2000/svg" xmlns:xlink="http://www.w3.org/1999/xlink">
    <title>透明底棕色logo</title>
    <defs>
        <radialGradient cx="92.1873248%" cy="45.5233506%" fx="92.1873248%" fy="45.5233506%" r="108.655199%" gradientTransform="translate(0.921873,0.455234),scale(1.000000,0.791567),rotate(-148.042307),translate(-0.921873,-0.455234)" id="radialGradient-1">
            <stop stop-color="#A9814D" offset="0%"></stop>
            <stop stop-color="#D4B784" offset="100%"></stop>
        </radialGradient>
        <linearGradient x1="18.6710934%" y1="-1.16155492e-13%" x2="77.7851679%" y2="45.9977693%" id="linearGradient-2">
            <stop stop-color="#D4B784" offset="0%"></stop>
            <stop stop-color="#A9814D" offset="100%"></stop>
        </linearGradient>
        <radialGradient cx="50%" cy="0%" fx="50%" fy="0%" r="104.497153%" gradientTransform="translate(0.500000,0.000000),scale(0.711014,1.000000),rotate(90.000000),translate(-0.500000,-0.000000)" id="radialGradient-3">
            <stop stop-color="#FFFFFF" offset="0%"></stop>
            <stop stop-color="#FFFFFF" offset="91.4812534%"></stop>
            <stop stop-color="#8F5A35" offset="100%"></stop>
        </radialGradient>
        <path d="M250.000123,27.4927932 C186.347416,27.4927932 123.810149,59.306783 73.1157238,111.277904 C29.2334624,156.265303 0,211.548967 0,248.679401 C0,267.494042 12.153051,286.58637 33.5542525,304.694563 L36.1666019,306.862741 C42.3647955,311.910425 49.2789344,316.876996 56.8452501,321.734754 L60.1277001,323.809907 C64.0033754,326.222959 68.0398175,328.607818 72.2290553,330.961022 L75.857064,332.970221 L79.5587959,334.963431 L83.3331356,336.940168 L87.1789676,338.899947 L91.0951764,340.842283 C91.7536806,341.164525 92.4150707,341.48602 93.0793235,341.806758 C143.625552,366.213288 203.861285,382.401243 247.595339,382.983741 L250.007865,383 C293.904439,383 355.438407,366.66526 406.920676,341.806758 L408.904824,340.842283 L412.821032,338.899947 L416.666864,336.940168 L420.441204,334.963431 L424.142936,332.970221 L427.770945,330.961022 C431.960183,328.607818 435.996625,326.222959 439.8723,323.809907 L443.15475,321.734754 C450.721066,316.876996 457.635204,311.910425 463.833398,306.862741 L466.445747,304.694563 C487.846949,286.58637 500,267.494042 500,248.679401 C500,211.549111 470.766699,156.26547 426.884809,111.277937 C376.809212,59.9406402 315.178332,28.2717435 252.332181,27.5069664 L250.000123,27.4927932 Z" id="path-4"></path>
        <linearGradient x1="50%" y1="0%" x2="50%" y2="100%" id="linearGradient-5">
            <stop stop-color="#D4B784" offset="0%"></stop>
            <stop stop-color="#925F1C" offset="100%"></stop>
        </linearGradient>
    </defs>
    <g id="透明底棕色logo" stroke="none" stroke-width="1" fill="none" fill-rule="evenodd">
        <g transform="translate(250.000000, 308.000000)">
            <path d="M448.271004,2.70376954 C464.940838,14.1676632 460.257776,52.946813 434.22182,119.041219 C473.994854,162.490205 500,213.659165 500,248.679401 C500,267.305896 488.088795,286.204551 467.085006,304.151023 L466.445747,304.694563 L463.833398,306.862741 C457.999804,311.613503 451.532016,316.292413 444.483199,320.876379 L443.15475,321.734754 L439.8723,323.809907 C436.481084,325.921327 432.966781,328.011163 429.334731,330.077094 L427.770945,330.961022 L424.142936,332.970221 L420.441204,334.963431 L416.666864,336.940168 L412.821032,338.899947 L408.904824,340.842283 L406.920676,341.806758 C355.953229,366.416675 295.134113,382.672453 251.330026,382.995107 L250.007865,383 L247.595339,382.983741 C203.861285,382.401243 143.625552,366.213288 93.0793235,341.806758 L92.0850942,341.325084 L92.0850942,341.325084 L91.0951764,340.842283 L87.1789676,338.899947 L83.3331356,336.940168 L79.5587959,334.963431 L75.857064,332.970221 L72.2290553,330.961022 C68.5634722,328.901968 65.0148734,326.818679 61.5885988,324.713473 L60.1277001,323.809907 L56.8452501,321.734754 C49.7240118,317.162746 43.1804803,312.494351 37.2678198,307.752661 L36.1666019,306.862741 L33.5542525,304.694563 C12.153051,286.58637 0,267.494042 0,248.679401 C0,213.659299 26.0048906,162.490826 65.7781336,119.043122 C39.7422707,52.947203 35.0590787,14.1677208 51.7289964,2.70376954 C67.5576072,-6.27394849 107.891138,7.10584761 172.729589,42.8431578 C197.402148,33.0386313 222.98032,27.664984 248.752913,27.4968623 L250.000123,27.4927932 L252.332181,27.5069664 C277.737346,27.8161228 302.943919,33.1754148 327.268854,42.8426254 C392.108862,7.10584761 432.442393,-6.27394849 448.271004,2.70376954 Z" id="形状结合" stroke="#8F5A35" stroke-width="50" fill="#FFFFFF"></path>
            <path d="M184.486208,49.4159144 C112.745793,8.76600712 68.4933887,-6.80470782 51.7289964,2.70376954 C34.212328,14.7500337 40.2731316,56.9572991 69.9114073,129.325566" id="路径-14" fill="#FFFFFF"></path>
            <path d="M143.954469,65.8654572 C99.2352131,14.2491881 68.4933887,-6.80470782 51.7289964,2.70376954 C34.212328,14.7500337 40.2731316,56.9572991 69.9114073,129.325566" id="路径-14" fill="url(#radialGradient-1)"></path>
            <g id="编组-65" transform="translate(250.000000, 191.500000) scale(-1, 1) translate(-250.000000, -191.500000) translate(0.000000, 0.000000)">
                <path d="M184.486208,49.4159144 C112.745793,8.76600712 68.4933887,-6.80470782 51.7289964,2.70376954 C34.212328,14.7500337 40.2731316,56.9572991 69.9114073,129.325566" id="路径-14" fill="#FFFFFF"></path>
                <path d="M143.954469,65.8654572 C99.2352131,14.2491881 68.4933887,-6.80470782 51.7289964,2.70376954 C34.212328,14.7500337 40.2731316,56.9572991 69.9114073,129.325566" id="路径-14" fill="url(#linearGradient-2)"></path>
                <g id="路径" fill-rule="nonzero">
                    <use fill="url(#radialGradient-3)" xlink:href="#path-4"></use>
                    <use fill="#FFFFFF" xlink:href="#path-4"></use>
                </g>
                <g id="编组" transform="translate(56.000000, 155.593750)">
                    <path d="M282.620285,0 C349.777091,0 388.391239,61.2616109 387.993975,101.361685 C387.993975,159.082689 304.546321,194.723632 243.095395,208.683214 L238.585294,209.677608 C237.096395,209.995858 235.622495,210.300896 234.16518,210.592728 L229.844577,211.42861 C229.133298,211.561323 228.426563,211.690735 227.724568,211.816848 L223.571089,212.533941 C222.888855,212.64686 222.211759,212.756481 221.54,212.862805 L217.575073,213.461189 L213.747753,213.98048 C211.244191,214.300317 208.838716,214.567448 206.544026,214.781923 L204.843979,214.932906 C202.12918,215.203748 199.164878,215.373599 195.955211,215.422693 L194,215.4375 C191.136655,215.4375 188.456564,215.344043 185.959727,215.169104 L183.156021,214.932906 C180.357891,214.69772 177.3817,214.380276 174.252247,213.98048 L170.424927,213.461189 L166.46,212.862805 C165.788241,212.756481 165.111145,212.64686 164.428911,212.533941 L160.275432,211.816848 C159.573437,211.690735 158.866702,211.561323 158.155423,211.42861 L153.83482,210.592728 C152.377505,210.300896 150.903605,209.995858 149.414706,209.677608 L144.904605,208.683214 C83.4536788,194.723632 0.00602494668,159.082689 0.0060249467,101.361685 C-0.391238877,61.2616109 38.2229087,0 105.379715,0 C134.400503,0 168.777543,23.1868699 168.777543,51.7884181 C168.777543,74.9742117 157.405421,88.2070463 144.294032,98.5646037 L142.094348,100.265454 L139.872366,101.92034 L137.637996,103.536543 L127.695751,110.525995 L125.570394,112.059601 L123.497067,113.601855 L121.48568,115.160037 C112.259147,122.48005 105.379715,130.558275 105.379715,142.724814 C105.379715,157.954823 124.203306,173.907615 148.541057,183.571031 L151.217318,184.599936 C157.509983,186.940923 164.128569,188.857878 170.853568,190.235151 L173.741585,190.792033 C180.010298,191.925557 186.343726,192.579497 192.566115,192.661258 L194,192.669926 C200.681518,192.677266 207.507493,192.012751 214.258415,190.792033 L217.146432,190.235151 C223.871431,188.857878 230.490017,186.940923 236.782682,184.599936 L239.458943,183.571031 C263.796694,173.907615 282.620285,157.954823 282.620285,142.724814 C282.620285,130.558275 275.740853,122.48005 266.51432,115.160037 L264.502933,113.601855 L262.429606,112.059601 L260.304249,110.525995 L251.480738,104.332414 L249.24389,102.732822 L247.014475,101.098187 C246.644076,100.822424 246.274399,100.544896 245.905652,100.265454 L243.705968,98.5646037 C230.594579,88.2070463 219.222457,74.9742117 219.222457,51.7884181 C219.222457,23.1868699 253.599497,0 282.620285,0 Z" id="路径" fill="url(#linearGradient-5)" fill-rule="nonzero"></path>
                    <g id="编组-2" transform="translate(151.962572, 124.291176)" fill="#8F5A35">
                        <path d="M42.0374281,58.0022062 C65.2540585,58.0022062 84.0748561,38.5868315 84.0748561,24.8580884 C84.0748561,11.1293453 65.2540585,0 42.0374281,0 C18.8207976,0 0,11.1293453 0,24.8580884 C0,38.5868315 18.8207976,58.0022062 42.0374281,58.0022062 Z" id="椭圆形" transform="translate(42.037428, 29.001103) scale(-1, 1) translate(-42.037428, -29.001103) "></path>
                    </g>
                    <path d="M274.259365,28 C273.028656,28 271.539259,28.1494839 269.871357,28.4338263 L269.022902,28.587168 C268.160315,28.7516125 267.256442,28.9491622 266.321307,29.1779889 L265.376123,29.4171737 C262.670679,30.1240194 259.741093,31.0770583 256.815341,32.2347075 L255.783254,32.6517178 C245.643259,36.834531 235.87252,43.4229481 236.001258,50.678682 C236.001258,52.6285789 236.622356,54.9071802 237.733007,57.2196055 L238.008895,57.775086 C238.103946,57.960362 238.202063,58.1457035 238.303178,58.3309595 L238.615451,58.88632 C242.254971,65.174078 249.28282,71.1884856 257.051819,70.9954765 C269.614392,70.7485988 287,60.8073476 287,48.2822573 L286.992066,47.0851364 L286.977632,46.3038912 L286.955515,45.5363224 L286.925399,44.7826083 L286.886968,44.0429275 L286.839907,43.3174581 L286.783901,42.6063788 L286.718634,41.9098677 L286.643791,41.2281034 L286.559056,40.5612641 L286.464114,39.9095283 L286.358649,39.2730744 C286.321705,39.0634899 286.282955,38.8564821 286.242345,38.6520807 L286.114889,38.0467256 C284.69474,31.6736451 281.317192,28 274.259365,28 Z M113.740635,28 C114.971344,28 116.460741,28.1494839 118.128643,28.4338263 L118.977098,28.587168 C119.839685,28.7516125 120.743558,28.9491622 121.678693,29.1779889 L122.623877,29.4171737 C125.329321,30.1240194 128.258907,31.0770583 131.184659,32.2347075 L132.216746,32.6517178 C142.356741,36.834531 152.12748,43.4229481 151.998742,50.678682 C151.998742,52.6285789 151.377644,54.9071802 150.266993,57.2196055 L149.991105,57.775086 C149.896054,57.960362 149.797937,58.1457035 149.696822,58.3309595 L149.384549,58.88632 C145.745029,65.174078 138.71718,71.1884856 130.948181,70.9954765 C118.385608,70.7485988 101,60.8073476 101,48.2822573 L101.007934,47.0851364 L101.022368,46.3038912 L101.044485,45.5363224 L101.074601,44.7826083 L101.113032,44.0429275 L101.160093,43.3174581 L101.216099,42.6063788 L101.281366,41.9098677 L101.356209,41.2281034 L101.440944,40.5612641 L101.535886,39.9095283 L101.641351,39.2730744 C101.678295,39.0634899 101.717045,38.8564821 101.757655,38.6520807 L101.885111,38.0467256 C103.30526,31.6736451 106.682808,28 113.740635,28 Z" id="形状结合" fill="#FFFFFF" fill-rule="nonzero"></path>
                </g>
            </g>
        </g>
    </g>
</svg>