<?xml version="1.0" encoding="UTF-8"?>
<svg width="2000px" height="636px" viewBox="0 0 2000 636" version="1.1" xmlns="http://www.w3.org/2000/svg" xmlns:xlink="http://www.w3.org/1999/xlink">
    <title>横版透明底白色logo</title>
    <g id="横版透明底白色logo" stroke="none" stroke-width="1" fill="none" fill-rule="evenodd">
        <g id="编组-3" transform="translate(178.000000, 131.000000)" fill="#FFFFFF" fill-rule="nonzero">
            <g id="编组-2" transform="translate(568.196828, 113.015748)">
                <path d="M45.9807222,6.37795276 C57.1404059,6.37795276 67.4172033,8.0427026 76.8111143,11.3722023 C86.2050253,14.701702 94.2216335,19.4125899 100.860939,25.5048659 C107.500245,31.5971419 112.691616,38.9291253 116.435055,47.500816 C120.178493,56.0725067 122.050212,65.600543 122.050212,76.084925 C122.050212,86.4276262 120.178493,95.9202424 116.435055,104.562773 C112.691616,113.205305 107.500245,120.643549 100.860939,126.877505 C94.2216335,133.111462 86.2050253,137.964031 76.8111143,141.435212 C67.4172033,144.906392 57.1404059,146.641982 45.9807222,146.641982 L0,146.641982 L0,6.37795276 L45.9807222,6.37795276 Z M28.6055184,32.3055461 L28.6055184,120.714389 L45.7688295,120.714389 C52.8319205,120.714389 59.2593332,119.651783 65.0510678,117.52657 C70.8428024,115.401358 75.7869661,112.39064 79.8835589,108.494417 C83.9801516,104.598194 87.1585426,99.922726 89.4187317,94.4680138 C91.6789208,89.0133015 92.8090153,82.8856053 92.8090153,76.084925 C92.8090153,69.142564 91.6789208,62.9794475 89.4187317,57.5955757 C87.1585426,52.2117038 83.9801516,47.6424968 79.8835589,43.8879546 C75.7869661,40.1334124 70.8428024,37.2643754 65.0510678,35.2808437 C59.2593332,33.297312 52.8319205,32.3055461 45.7688295,32.3055461 L28.6055184,32.3055461 Z" id="形状"></path>
                <path d="M191.465977,37.0166655 C198.811591,37.0166655 205.521528,38.291793 211.595786,40.8420481 C217.670044,43.3923032 222.861416,46.8634837 227.169902,51.2555897 C231.478387,55.6476957 234.79804,60.8190463 237.12886,66.7696415 C239.45968,72.7202366 240.62509,79.0958744 240.62509,85.8965546 C240.62509,88.8718522 240.413197,91.7763094 239.989412,94.6099261 C239.565626,97.4435429 239.141841,99.7812767 238.718055,101.623128 L164.979386,101.623128 C166.815789,108.423808 170.347335,113.595158 175.574022,117.137179 C180.800709,120.6792 187.228122,122.450211 194.85626,122.450211 C200.506733,122.450211 205.698105,121.493865 210.430376,119.581174 C215.162647,117.668483 219.718341,115.082807 224.097457,111.824148 L235.751557,131.376104 C229.818561,136.334933 223.391148,140.195736 216.469319,142.958512 C209.54749,145.721288 202.060613,147.102677 194.008689,147.102677 C185.674242,147.102677 177.975473,145.685868 170.912382,142.852251 C163.849291,140.018635 157.775033,136.122412 152.689607,131.163582 C147.604182,126.204753 143.613535,120.395839 140.717668,113.736839 C137.821801,107.07784 136.373867,99.8521171 136.373867,92.059671 C136.373867,84.2672249 137.786485,77.0415022 140.611722,70.3825028 C143.436958,63.7235034 147.321658,57.9145891 152.265822,52.9557597 C157.209986,47.9969304 163.037036,44.1007074 169.746972,41.2670906 C176.456908,38.4334739 183.696577,37.0166655 191.465977,37.0166655 Z M190.406513,60.1814825 C184.190993,60.1814825 178.823044,62.0587536 174.302666,65.8132958 C169.782287,69.567838 166.674527,74.7746088 164.979386,81.4336082 L213.079035,81.4336082 C212.796511,74.632928 210.465691,69.390737 206.086575,65.7070352 C201.707459,62.0233334 196.480771,60.1814825 190.406513,60.1814825 Z" id="形状"></path>
                <path d="M464.946904,36.0906469 C472.292518,36.0906469 479.002455,37.3657745 485.076713,39.9160296 C491.150971,42.4662846 496.342343,45.9374652 500.650829,50.3295711 C504.959314,54.7216771 508.278967,59.8930277 510.609787,65.8436229 C512.940607,71.7942181 514.106017,78.1698558 514.106017,84.970536 C514.106017,87.9458336 513.894124,90.8502908 513.470339,93.6839076 C513.046553,96.5175243 512.622768,98.8552582 512.198982,100.697109 L438.460313,100.697109 C440.296716,107.497789 443.828262,112.66914 449.054949,116.211161 C454.281637,119.753182 460.709049,121.524192 468.337188,121.524192 C473.98766,121.524192 479.179032,120.567847 483.911303,118.655155 C488.643574,116.742464 493.199268,114.156789 497.578384,110.898129 L509.232484,130.450085 C503.299488,135.408914 496.872075,139.269717 489.950246,142.032494 C483.028417,144.79527 475.54154,146.176658 467.489617,146.176658 C459.155169,146.176658 451.4564,144.75985 444.393309,141.926233 C437.330218,139.092616 431.25596,135.196393 426.170534,130.237564 C421.085109,125.278734 417.094463,119.46982 414.198595,112.810821 C411.302728,106.151821 409.854794,98.9260986 409.854794,91.1336525 C409.854794,83.3412064 411.267413,76.1154837 414.092649,69.4564843 C416.917885,62.7974849 420.802585,56.9885705 425.746749,52.0297412 C430.690913,47.0709119 436.517963,43.1746888 443.227899,40.3410721 C449.937836,37.5074553 457.177504,36.0906469 464.946904,36.0906469 Z M463.88744,59.2554639 C457.67192,59.2554639 452.303971,61.132735 447.783593,64.8872772 C443.263215,68.6418195 440.155455,73.8485903 438.460313,80.5075896 L486.559962,80.5075896 C486.277439,73.7069094 483.946619,68.4647184 479.567502,64.7810166 C475.188386,61.0973148 469.961698,59.2554639 463.88744,59.2554639 Z" id="形状"></path>
                <path d="M588.1233,40.489235 C591.654846,40.489235 594.691975,40.9142775 597.234687,41.7643626 L597.234687,67.0543922 L589.606549,67.0543922 C581.413364,67.0543922 574.703427,69.2504451 569.47674,73.6425511 C564.250053,78.0346571 561.636709,84.9770182 561.636709,94.4696343 L561.636709,146.962385 L533.03119,146.962385 L533.03119,41.7643626 L559.305889,41.7643626 L559.305889,54.3031167 C562.837434,49.7693299 567.075289,46.3335696 572.019453,43.9958358 C576.963616,41.6581019 582.331565,40.489235 588.1233,40.489235 Z" id="路径"></path>
                <path d="M682.826886,60.4916987 L652.950011,60.4916987 L652.950011,101.933344 C652.950011,108.02562 654.539206,112.276045 657.717597,114.684619 C660.895988,117.093193 665.804836,118.297481 672.444142,118.297481 C674.139284,118.297481 676.116949,118.22664 678.377138,118.084959 C680.637327,117.943279 683.18004,117.730757 686.005277,117.447396 L686.005277,141.462298 C683.038778,142.170702 679.931018,142.772845 676.681997,143.268728 C673.432975,143.764611 669.97206,144.012553 666.299253,144.012553 C653.303165,144.012553 643.061683,140.824734 635.574807,134.449096 C628.087931,128.073458 624.344492,118.084959 624.344492,104.483599 L624.344492,60.4916987 L607.81686,60.4916987 L607.81686,36.2642754 L624.344492,36.2642754 L624.344492,9.69911828 L652.950011,9.69911828 L652.950011,36.2642754 L682.826886,36.2642754 L682.826886,60.4916987 Z" id="路径"></path>
                <path d="M715.717916,106.468057 C721.227127,106.468057 725.853452,108.380748 729.59689,112.206131 C733.340328,116.031513 735.212047,120.706981 735.212047,126.232534 C735.212047,131.899767 733.340328,136.610655 729.59689,140.365197 C725.853452,144.119739 721.227127,145.99701 715.717916,145.99701 C709.926182,145.99701 705.158595,144.119739 701.415157,140.365197 C697.671719,136.610655 695.8,131.899767 695.8,126.232534 C695.8,120.706981 697.671719,116.031513 701.415157,112.206131 C705.158595,108.380748 709.926182,106.468057 715.717916,106.468057 Z" id="路径"></path>
                <path d="M879.43841,40.489235 C885.65393,40.489235 891.233772,41.5164211 896.177935,43.5707933 C901.122099,45.6251654 905.289323,48.4942024 908.679606,52.1779042 C912.06989,55.861606 914.647918,60.2891321 916.413691,65.4604827 C918.179464,70.6318333 919.06235,76.4053275 919.06235,82.7809652 L919.06235,148.024991 L890.456832,148.024991 L890.456832,86.8188691 C890.456832,80.4432313 888.76169,75.4489818 885.371406,71.8361204 C881.981122,68.2232591 877.460744,66.4168284 871.810271,66.4168284 C866.018537,66.4168284 861.356897,68.2232591 857.825351,71.8361204 C854.293806,75.4489818 852.528033,80.2307101 852.528033,86.1813053 L852.528033,148.024991 L823.922515,148.024991 L823.922515,86.8188691 C823.922515,80.4432313 822.227373,75.4489818 818.837089,71.8361204 C815.446806,68.2232591 810.855796,66.4168284 805.064062,66.4168284 C799.272327,66.4168284 794.646003,68.2232591 791.185088,71.8361204 C787.724173,75.4489818 785.993716,80.4432313 785.993716,86.8188691 L785.993716,148.024991 L757.388198,148.024991 L757.388198,42.8269689 L783.662896,42.8269689 L783.662896,52.1779042 C787.194442,48.4942024 791.432296,45.6251654 796.37646,43.5707933 C801.320624,41.5164211 806.971096,40.489235 813.327878,40.489235 C820.390969,40.489235 826.500543,41.7997828 831.656599,44.4208783 C836.812656,47.0419738 841.015195,50.7610958 844.264217,55.5782443 C848.360809,51.0444575 853.375604,47.3961759 859.3086,44.6333995 C865.241597,41.8706232 871.951533,40.489235 879.43841,40.489235 Z" id="路径"></path>
                <path d="M1001.64406,36.0906469 C1008.98967,36.0906469 1015.69961,37.3657745 1021.77387,39.9160296 C1027.84813,42.4662846 1033.0395,45.9374652 1037.34798,50.3295711 C1041.65647,54.7216771 1044.97612,59.8930277 1047.30694,65.8436229 C1049.63776,71.7942181 1050.80317,78.1698558 1050.80317,84.970536 C1050.80317,87.9458336 1050.59128,90.8502908 1050.16749,93.6839076 C1049.74371,96.5175243 1049.31992,98.8552582 1048.89614,100.697109 L975.157467,100.697109 C976.993871,107.497789 980.525417,112.66914 985.752104,116.211161 C990.978791,119.753182 997.406204,121.524192 1005.03434,121.524192 C1010.68481,121.524192 1015.87619,120.567847 1020.60846,118.655155 C1025.34073,116.742464 1029.89642,114.156789 1034.27554,110.898129 L1045.92964,130.450085 C1039.99664,135.408914 1033.56923,139.269717 1026.6474,142.032494 C1019.72557,144.79527 1012.23869,146.176658 1004.18677,146.176658 C995.852324,146.176658 988.153555,144.75985 981.090464,141.926233 C974.027373,139.092616 967.953115,135.196393 962.867689,130.237564 C957.782264,125.278734 953.791617,119.46982 950.89575,112.810821 C947.999883,106.151821 946.551949,98.9260986 946.551949,91.1336525 C946.551949,83.3412064 947.964567,76.1154837 950.789804,69.4564843 C953.61504,62.7974849 957.49974,56.9885705 962.443904,52.0297412 C967.388067,47.0709119 973.215117,43.1746888 979.925054,40.3410721 C986.63499,37.5074553 993.874658,36.0906469 1001.64406,36.0906469 Z M1000.58459,59.2554639 C994.369075,59.2554639 989.001126,61.132735 984.480747,64.8872772 C979.960369,68.6418195 976.852609,73.8485903 975.157467,80.5075896 L1023.25712,80.5075896 C1022.97459,73.7069094 1020.64377,68.4647184 1016.26466,64.7810166 C1011.88554,61.0973148 1006.65885,59.2554639 1000.58459,59.2554639 Z" id="形状"></path>
                <path d="M328.749736,0 C342.452133,0 354.635965,3.11697844 365.301232,9.35093531 C375.966499,15.5848922 384.406893,24.0857425 390.622413,34.8534861 L368.797462,50.1550166 C364.135822,42.6459322 358.520665,36.8370179 351.95199,32.7282736 C345.383315,28.6195293 337.649231,26.5651571 328.749736,26.5651571 C322.251693,26.5651571 316.283381,27.6986038 310.844801,29.9654972 C305.406221,32.2323906 300.67395,35.4202095 296.647988,39.5289538 C292.622026,43.6376981 289.47895,48.525687 287.218761,54.1929205 C284.958572,59.8601541 283.828478,66.0941109 283.828478,72.8947911 C283.828478,79.6954714 284.958572,85.894008 287.218761,91.4904011 C289.47895,97.0867942 292.622026,101.903943 296.647988,105.941847 C300.67395,109.97975 305.406221,113.132149 310.844801,115.399043 C316.283381,117.665936 322.251693,118.799383 328.749736,118.799383 C337.649231,118.799383 345.383315,116.745011 351.95199,112.636266 C358.520665,108.527522 364.135822,102.718608 368.797462,95.2095231 L390.622413,110.511054 C384.406893,121.278797 375.966499,129.779648 365.301232,136.013604 C354.635965,142.247561 342.452133,145.36454 328.749736,145.36454 C318.296362,145.36454 308.549296,143.522689 299.50854,139.838987 C290.467783,136.155285 282.627752,131.054775 275.988447,124.537457 C269.349141,118.020138 264.087138,110.333953 260.202438,101.4789 C256.317738,92.6238478 254.375388,83.0249711 254.375388,72.6822699 C254.375388,62.3395687 256.317738,52.7406919 260.202438,43.8856396 C264.087138,35.0305872 269.349141,27.3444017 275.988447,20.8270832 C282.627752,14.3097646 290.467783,9.20925447 299.50854,5.52555268 C308.549296,1.84185089 318.296362,0 328.749736,0 Z" id="路径"></path>
            </g>
            <g id="编组-65" transform="translate(236.500000, 186.500000) scale(-1, 1) translate(-236.500000, -186.500000) ">
                <path d="M305.523054,180.00533 C304.464644,180.00533 303.183763,180.134076 301.749367,180.378971 L301.019696,180.51104 C300.277871,180.652671 299.50054,180.822815 298.696324,181.019896 L297.883466,181.225899 C295.556784,181.834683 293.03734,182.655507 290.521194,183.652555 L289.633598,184.011713 C280.913203,187.614242 272.510367,193.288645 272.621082,199.537788 C272.621082,201.217174 273.155226,203.179664 274.110386,205.171286 L274.34765,205.649704 C274.429393,205.809277 274.513774,205.968906 274.600733,206.128461 L274.869288,206.606776 C277.999275,212.02223 284.043225,217.202256 290.724564,217.036024 C301.528377,216.823395 316.48,208.261299 316.48,197.47382 L316.473177,196.442776 L316.460764,195.769914 L316.441743,195.10883 L316.415843,194.459679 L316.382792,193.822615 L316.34232,193.19779 L316.294155,192.585359 L316.238025,191.985475 L316.17366,191.398292 L316.100788,190.823964 L316.019138,190.262644 L315.928438,189.714485 C315.896666,189.533977 315.863341,189.355687 315.828417,189.179643 L315.718804,188.658269 C314.497477,183.169329 311.592785,180.00533 305.523054,180.00533 Z M167.476946,180.00533 C168.535356,180.00533 169.816237,180.134076 171.250633,180.378971 L171.980304,180.51104 C172.722129,180.652671 173.49946,180.822815 174.303676,181.019896 L175.116534,181.225899 C177.443216,181.834683 179.96266,182.655507 182.478806,183.652555 L183.366402,184.011713 C192.086797,187.614242 200.489633,193.288645 200.378918,199.537788 C200.378918,201.217174 199.844774,203.179664 198.889614,205.171286 L198.65235,205.649704 C198.570607,205.809277 198.486226,205.968906 198.399267,206.128461 L198.130712,206.606776 C195.000725,212.02223 188.956775,217.202256 182.275436,217.036024 C171.471623,216.823395 156.52,208.261299 156.52,197.47382 L156.526823,196.442776 L156.539236,195.769914 L156.558257,195.10883 L156.584157,194.459679 L156.617208,193.822615 L156.65768,193.19779 L156.705845,192.585359 L156.761975,191.985475 L156.82634,191.398292 L156.899212,190.823964 L156.980862,190.262644 L157.071562,189.714485 C157.103334,189.533977 157.136659,189.355687 157.171583,189.179643 L157.281196,188.658269 C158.502523,183.169329 161.407215,180.00533 167.476946,180.00533 Z" id="形状结合"></path>
                <path d="M417.152415,4.9401674 L417.620141,5.20150002 L418.429342,5.66114246 L419.195874,6.18906702 C427.491488,11.9024066 432.783045,20.4572188 435.235019,30.7499383 C437.186663,38.9424111 437.377887,48.2815879 436.089453,58.9665103 C435.69436,62.2429938 435.154165,65.680819 434.469221,69.2825884 L434.235546,70.4892538 L433.928379,72.0146957 C433.591803,73.6519864 433.226652,75.3217897 432.832957,77.024334 L432.532334,78.3073848 L432.141507,79.9284966 L431.733966,81.568868 L431.523929,82.3962891 L431.309716,83.2285407 L430.868762,84.9075566 L430.411111,86.6059574 L429.936767,88.3237852 L429.693338,89.1899972 L429.445738,90.0610815 L428.938027,91.8178885 L428.413642,93.5942477 L428.009413,94.9393735 L427.59581,96.2955388 L427.029762,98.1209619 L426.447059,99.9660838 L426.298781,100.430447 L426.149463,100.896045 L425.541788,102.770793 L424.917471,104.665345 L424.27652,106.579742 L423.618939,108.514026 L422.944733,110.468239 L422.773585,110.959911 L422.601399,111.452832 L421.902268,113.437017 L421.72489,113.936192 L421.546474,114.436619 L420.822431,116.45087 L420.081788,118.485217 L419.637,119.692614 L420.600644,120.845501 C451.890498,158.506844 472.141347,200.816972 472.973347,233.691669 L472.992606,234.684969 L473,235.781756 C473,258.563368 460.271066,279.940687 437.803875,299.37323 L437.120073,299.961499 L436.472878,300.512599 L434.050885,302.525755 L432.977065,303.395742 C427.988673,307.406438 422.56399,311.341953 416.689558,315.218037 L415.423862,316.047723 L414.281396,316.787015 L411.279049,318.68914 L409.964453,319.505154 C407.641512,320.936931 405.257666,322.358044 402.794855,323.778969 L401.307548,324.631584 L399.799126,325.484537 L396.567855,327.276664 L393.163766,329.112313 L389.702146,330.927945 L386.183724,332.723527 L382.711147,334.448376 L380.800409,335.379215 C334.519005,357.759439 279.830961,372.398114 238.957714,372.981986 L237.723382,372.99537 L236.474096,373 L234.287097,372.985239 L232.916652,372.963253 C192.629703,372.153483 139.145852,357.848178 93.5534264,336.030392 L92.174275,335.366953 L91.2684127,334.92736 L90.4170833,334.511538 L86.8162764,332.723527 L83.2978536,330.927945 L79.8362343,329.112313 L76.4321448,327.276664 L73.200874,325.484537 L71.6374942,324.60036 C69.327393,323.284334 67.0629032,321.954332 64.8278406,320.600117 L63.1568083,319.579756 L61.8104171,318.745783 L58.8980442,316.901874 L57.5095009,316.004432 C51.6798141,312.207129 46.2484179,308.324342 41.1959496,304.33033 L40.036713,303.406649 L38.980327,302.551698 L36.5470202,300.529139 L35.7747164,299.871536 C12.9585415,280.328406 0,258.773228 0,235.781756 C0,202.954969 20.0355803,160.175182 51.4442956,122.00187 L52.3995471,120.846528 L53.36214,119.693475 L52.5447742,117.464059 L51.811526,115.437168 L51.0949244,113.430405 L50.3949753,111.443727 L50.2225906,110.950192 L50.0512471,110.457908 L49.3762871,108.501281 L48.7179938,106.564635 L48.0763727,104.647927 L47.761816,103.697038 L47.4514296,102.751117 L46.8431702,100.874161 L46.2516001,99.0170184 L45.6767252,97.1796464 L45.3955501,96.2683613 L45.118551,95.3620032 L44.5770832,93.5640467 L44.0523276,91.7857351 C43.8228176,90.9997336 43.5982609,90.2195404 43.37866,89.4451387 L43.0529756,88.2878779 L42.5783907,86.5682484 L42.1205406,84.8680957 L41.7881388,83.6057374 L41.465156,82.3542934 L41.0491682,80.7026485 L40.6499353,79.0703333 C40.4762226,78.3491491 40.3074759,77.6336797 40.1436977,76.9239087 L39.9017568,75.8635237 L39.5528226,74.2889452 C38.5049878,69.4735895 37.6954154,64.9303509 37.1248518,60.6537215 L36.9871907,59.5901153 L36.9105276,58.9668346 C35.6220937,48.2818101 35.8133115,38.9425811 37.7649454,30.7500764 C40.1715053,20.6478978 45.3134639,12.2198756 53.3463462,6.50939258 L53.8041262,6.18906702 L54.5706583,5.66114246 L55.3798591,5.20150002 C66.4158612,-1.06717216 79.8280562,-1.3799048 96.5439939,2.71207662 L97.2522698,2.88759425 L98.5056346,3.20842872 L99.7712581,3.54520991 L101.049224,3.89779699 C101.619965,4.05799392 102.194387,4.22283235 102.772525,4.39225664 L103.642523,4.64982552 L104.958024,5.0489853 L105.288877,5.15116239 L105.620523,5.25428995 L106.955075,5.67626077 L107.964388,6.0026109 L108.980941,6.33735673 L110.35793,6.80049114 L111.052942,7.03847712 L111.752303,7.28074279 L113.164086,7.77811472 L113.876514,8.03322173 L114.593305,8.29260996 L116.039987,8.82423157 L117.504157,9.37298257 L118.613778,9.79578882 L119.733262,10.2282334 L121.24127,10.8198212 L121.621018,10.9703961 L122.001866,11.1220424 L123.536255,11.7393414 L123.922605,11.8963449 L124.310056,12.05442 L125.870887,12.697437 L127.449377,13.3576033 L127.846763,13.5253247 L128.245254,13.6941183 L129.850284,14.3800139 L130.25431,14.5541685 L130.659445,14.7293954 L132.291075,15.4410274 L132.701757,15.6216167 L133.11355,15.8032786 L134.771838,16.5406538 L136.44793,17.2951948 L138.141855,18.0669047 L139.853637,18.8557866 L141.583304,19.6618435 L142.018518,19.8660417 L142.454852,20.0713136 L144.211394,20.9031387 L145.985886,21.7521465 L147.778355,22.6183399 L149.588827,23.501722 L152.338347,24.8590306 L155.128521,26.255031 L157.011268,27.2071983 L158.912148,28.1765695 L160.83119,29.1631477 L162.768419,30.1669358 L165.708421,31.7048934 L167.691233,32.7517198 L169.692325,33.8157669 L171.74114,34.9126871 L172.10915,34.7858808 C192.140978,27.910882 212.54678,24.1770608 232.970154,23.7831703 L234.220584,23.7632294 L235.357361,23.7523526 L236.429961,23.748848 L238.636341,23.761338 L239.902278,23.7798266 C259.907001,24.1455714 279.939848,27.7338881 299.624437,34.3552587 L300.880424,34.7820167 L301.25714,34.9126871 L302.314405,34.3456965 L304.354108,33.2574687 L306.374973,32.1869755 L308.377027,31.1342138 L308.874605,30.8737936 L309.371009,30.6144813 L311.344898,29.5883107 L311.835441,29.3345375 L312.324813,29.081872 L314.2706,28.0822855 L316.197686,27.1004177 L318.1061,26.1362654 L318.580289,25.897995 L319.053313,25.6608315 L321.867018,24.2610945 L322.3319,24.0316784 L322.79562,23.803369 L324.638896,22.9011957 L326.463622,22.0167237 L329.165992,20.7231982 L330.944467,19.8829649 L332.70449,19.0604217 L334.446087,18.2555652 L336.169287,17.4683922 L337.874118,16.6988997 L339.560607,15.9470843 L339.979366,15.7618922 L340.396981,15.5778046 L342.056008,14.852499 L343.696762,14.1448627 L344.104099,13.970714 L344.510296,13.7976694 L346.123692,13.1165309 L347.718884,12.4530536 L349.295899,11.8072343 L349.687316,11.6485382 L350.077599,11.4909455 L351.627401,10.8716072 L353.159095,10.2699191 L354.672709,9.6858778 L355.048291,9.54262443 L355.422745,9.40047373 L356.90929,8.84289675 L357.278112,8.7062587 L357.645807,8.57072303 L359.105347,8.03960317 L359.467423,7.90957866 L359.828376,7.78065622 L361.260971,7.2759863 L362.32365,6.90905327 L363.376256,6.55203537 L364.019012,6.3372597 C364.62357,6.13641816 365.224296,5.93996772 365.821224,5.74796402 L366.71377,5.46330047 L368.04196,5.04890286 L368.372023,4.94767959 L368.701294,4.84741118 L370.010495,4.45593006 L370.984153,4.172453 L371.950784,3.89772806 L373.228758,3.54514523 L374.494388,3.20836817 L375.747759,2.88753771 C392.557021,-1.32815922 406.049325,-1.16102383 417.152415,4.9401674 Z M312.713445,155.609921 C287.755567,155.609921 258.191313,175.580066 258.191313,200.213707 C258.191313,220.182925 267.971338,231.579962 279.247132,240.50061 L281.13886,241.965501 L283.049765,243.390804 L284.971324,244.78279 L293.521655,250.802592 L295.349461,252.123441 L297.132522,253.451737 L298.862315,254.793752 C306.797133,261.098256 312.713445,268.055784 312.713445,278.534454 C312.713445,291.651596 296.525157,305.39125 275.594691,313.714056 L273.293106,314.600219 C267.881415,316.61644 262.18943,318.267456 256.405932,319.453659 L253.922237,319.933284 C248.531143,320.909554 243.084396,321.472773 237.733141,321.543191 L236.5,321.550657 C230.753895,321.556978 224.883556,320.984651 219.077763,319.933284 L216.594068,319.453659 C210.81057,318.267456 205.118585,316.61644 199.706894,314.600219 L197.405309,313.714056 C176.474843,305.39125 160.286555,291.651596 160.286555,278.534454 C160.286555,268.055784 166.202867,261.098256 174.137685,254.793752 L175.867478,253.451737 L177.650539,252.123441 L179.478345,250.802592 L187.066566,245.46825 L188.990255,244.090569 L190.907552,242.682709 C191.226095,242.445202 191.544017,242.206176 191.86114,241.965501 L193.752868,240.50061 C205.028662,231.579962 214.808687,220.182925 214.808687,200.213707 C214.808687,175.580066 185.244433,155.609921 160.286555,155.609921 C102.531701,155.609921 69.3235346,208.37268 69.6651815,242.909651 C69.6651815,292.622992 141.430164,323.319451 194.27796,335.342413 L198.156647,336.198854 C199.4371,336.472954 200.704654,336.735674 201.957945,336.987019 L205.673664,337.706939 C206.285364,337.82124 206.893156,337.932699 207.496871,338.041317 L211.068863,338.658927 C211.655585,338.756181 212.237887,338.850594 212.8156,338.942167 L216.225437,339.457538 L219.516933,339.904787 C221.669996,340.180253 223.738704,340.410325 225.712138,340.595045 L227.174178,340.725083 C229.508905,340.95835 232.058205,341.104638 234.818519,341.146921 L236.5,341.159674 C238.962477,341.159674 241.267355,341.079182 243.414634,340.928512 L245.825822,340.725083 C248.232213,340.522524 250.791738,340.249119 253.483067,339.904787 L256.774563,339.457538 L260.1844,338.942167 C260.762113,338.850594 261.344415,338.756181 261.931137,338.658927 L265.503129,338.041317 C266.106844,337.932699 266.714636,337.82124 267.326336,337.706939 L271.042055,336.987019 C272.295346,336.735674 273.5629,336.472954 274.843353,336.198854 L278.72204,335.342413 C331.569836,323.319451 403.334819,292.622992 403.334819,242.909651 C403.676465,208.37268 370.468299,155.609921 312.713445,155.609921 Z M236.5,262.658123 C216.533698,262.658123 200.347812,272.243489 200.347812,284.067637 C200.347812,295.891785 216.533698,312.613655 236.5,312.613655 C256.466302,312.613655 272.652188,295.891785 272.652188,284.067637 C272.652188,272.243489 256.466302,262.658123 236.5,262.658123 Z M65.9869369,23.9304409 C51.6507953,33.8040013 55.6783598,67.2036367 78.0695967,124.12954 C80.1306806,121.874728 82.2347566,119.64406 84.3795224,117.442034 C101.700293,99.6588422 120.628639,84.615867 140.585814,72.9433272 C104.673691,32.4177683 79.8073983,16.0801395 65.9869369,23.9304409 Z M332.414412,72.9422168 C352.371767,84.6154783 371.300129,99.6586294 388.620936,117.442062 C390.765683,119.644094 392.869742,121.874768 394.930369,124.129347 C417.32164,67.2036367 421.349205,33.8040013 407.013063,23.9304409 C393.192716,16.0802044 368.32672,32.4174982 332.414412,72.9422168 Z" id="形状结合"></path>
            </g>
        </g>
    </g>
</svg>